<svg width="17" height="16" viewBox="0 0 17 16" fill="none" xmlns="http://www.w3.org/2000/svg">
<path fill-rule="evenodd" clip-rule="evenodd" d="M8.50016 1.83301C5.09441 1.83301 2.3335 4.59392 2.3335 7.99967C2.3335 11.4054 5.09441 14.1663 8.50016 14.1663C11.9059 14.1663 14.6668 11.4054 14.6668 7.99967C14.6668 4.59392 11.9059 1.83301 8.50016 1.83301ZM1.3335 7.99967C1.3335 4.04163 4.54212 0.833008 8.50016 0.833008C12.4582 0.833008 15.6668 4.04163 15.6668 7.99967C15.6668 11.9577 12.4582 15.1663 8.50016 15.1663C4.54212 15.1663 1.3335 11.9577 1.3335 7.99967ZM8.18705 5.64612C8.38231 5.84139 8.38231 6.15797 8.18705 6.35323L7.04061 7.49965H11.1668C11.443 7.49965 11.6668 7.72351 11.6668 7.99965C11.6668 8.27579 11.443 8.49965 11.1668 8.49965H7.0406L8.18705 9.6461C8.38231 9.84136 8.38231 10.1579 8.18705 10.3532C7.99179 10.5485 7.6752 10.5485 7.47994 10.3532L5.47994 8.35321C5.38617 8.25944 5.3335 8.13226 5.3335 7.99965C5.3335 7.86704 5.38618 7.73986 5.47995 7.6461L7.47995 5.64612C7.67521 5.45086 7.99179 5.45086 8.18705 5.64612Z" fill="white"/>
</svg>
