<svg width="20" height="20" viewBox="0 0 20 20" fill="none" xmlns="http://www.w3.org/2000/svg">
<path fill-rule="evenodd" clip-rule="evenodd" d="M9.99984 2.29102C5.74264 2.29102 2.2915 5.74215 2.2915 9.99935C2.2915 14.2565 5.74264 17.7077 9.99984 17.7077C14.257 17.7077 17.7082 14.2565 17.7082 9.99935C17.7082 5.74215 14.257 2.29102 9.99984 2.29102ZM1.0415 9.99935C1.0415 5.0518 5.05229 1.04102 9.99984 1.04102C14.9474 1.04102 18.9582 5.0518 18.9582 9.99935C18.9582 14.9469 14.9474 18.9577 9.99984 18.9577C5.05229 18.9577 1.0415 14.9469 1.0415 9.99935ZM9.60845 7.05741C9.85253 7.30149 9.85252 7.69722 9.60844 7.94129L8.1754 9.37432L13.3332 9.37432C13.6783 9.37432 13.9582 9.65414 13.9582 9.99932C13.9582 10.3445 13.6783 10.6243 13.3332 10.6243L8.17539 10.6243L9.60845 12.0574C9.85252 12.3015 9.85252 12.6972 9.60845 12.9413C9.36437 13.1853 8.96864 13.1853 8.72456 12.9413L6.22456 10.4413C6.10735 10.3241 6.0415 10.1651 6.0415 9.99932C6.0415 9.83356 6.10735 9.67459 6.22457 9.55738L8.72457 7.05741C8.96864 6.81333 9.36437 6.81333 9.60845 7.05741Z" fill="#141414"/>
</svg>
