<svg width="16" height="16" viewBox="0 0 16 16" fill="none" xmlns="http://www.w3.org/2000/svg">
<g clip-path="url(#clip0_12906_5401)">
<path fill-rule="evenodd" clip-rule="evenodd" d="M5.3335 0.166992C5.60964 0.166992 5.8335 0.39085 5.8335 0.666992V0.84965C6.3678 0.833656 6.98652 0.833657 7.71087 0.833659H8.28946C9.01381 0.833657 9.63253 0.833656 10.1668 0.84965V0.666992C10.1668 0.39085 10.3907 0.166992 10.6668 0.166992C10.943 0.166992 11.1668 0.39085 11.1668 0.666992V0.911621C11.7603 0.975245 12.2575 1.09366 12.7098 1.32413C13.5565 1.75556 14.2449 2.44397 14.6764 3.2907C14.9362 3.80076 15.0536 4.36782 15.1107 5.06575C15.1668 5.75314 15.1668 6.61007 15.1668 7.71102V8.28963C15.1668 9.39058 15.1668 10.2475 15.1107 10.9349C15.0536 11.6328 14.9362 12.1999 14.6764 12.7099C14.2449 13.5567 13.5565 14.2451 12.7098 14.6765C12.1997 14.9364 11.6327 15.0538 10.9347 15.1108C10.2474 15.167 9.39042 15.167 8.28947 15.167H7.71086C6.6099 15.167 5.75298 15.167 5.06559 15.1108C4.36766 15.0538 3.8006 14.9364 3.29054 14.6765C2.44381 14.2451 1.7554 13.5567 1.32397 12.7099C1.06408 12.1999 0.946676 11.6328 0.889653 10.9349C0.833491 10.2475 0.833494 9.39058 0.833496 8.28962V7.71103C0.833494 6.61007 0.833491 5.75314 0.889653 5.06575C0.946676 4.36782 1.06408 3.80076 1.32397 3.2907C1.7554 2.44397 2.44381 1.75556 3.29054 1.32413C3.74286 1.09366 4.24001 0.975245 4.8335 0.911621V0.666992C4.8335 0.39085 5.05735 0.166992 5.3335 0.166992ZM4.8335 1.91822C4.36662 1.9758 4.02993 2.06972 3.74453 2.21514C3.08596 2.55069 2.55053 3.08612 2.21497 3.74469C2.03889 4.09028 1.9383 4.51109 1.88633 5.14718C1.83389 5.78911 1.8335 6.6053 1.8335 7.73366V8.26699C1.8335 9.39535 1.83389 10.2115 1.88633 10.8535C1.9383 11.4896 2.03889 11.9104 2.21497 12.256C2.55053 12.9145 3.08596 13.45 3.74453 13.7855C4.09012 13.9616 4.51093 14.0622 5.14702 14.1142C5.78895 14.1666 6.60514 14.167 7.7335 14.167H8.26683C9.39519 14.167 10.2114 14.1666 10.8533 14.1142C11.4894 14.0622 11.9102 13.9616 12.2558 13.7855C12.9144 13.45 13.4498 12.9145 13.7854 12.256C13.9614 11.9104 14.062 11.4896 14.114 10.8535C14.1664 10.2115 14.1668 9.39535 14.1668 8.26699V7.73366C14.1668 6.6053 14.1664 5.78911 14.114 5.14718C14.062 4.51109 13.9614 4.09028 13.7854 3.74469C13.4498 3.08612 12.9144 2.55069 12.2558 2.21514C11.9704 2.06972 11.6337 1.9758 11.1668 1.91822V2.66699C11.1668 2.94313 10.943 3.16699 10.6668 3.16699C10.3907 3.16699 10.1668 2.94313 10.1668 2.66699V1.85006C9.64737 1.83384 9.02816 1.83366 8.26683 1.83366L7.7335 1.83366C6.97217 1.83366 6.35296 1.83384 5.8335 1.85006V2.66699C5.8335 2.94313 5.60964 3.16699 5.3335 3.16699C5.05735 3.16699 4.8335 2.94313 4.8335 2.66699V1.91822ZM4.16683 5.33366C4.16683 5.05752 4.39069 4.83366 4.66683 4.83366L11.3335 4.83366C11.6096 4.83366 11.8335 5.05752 11.8335 5.33366C11.8335 5.6098 11.6096 5.83366 11.3335 5.83366L4.66683 5.83366C4.39069 5.83366 4.16683 5.6098 4.16683 5.33366Z" fill="#737373"/>
</g>
<defs>
<clipPath id="clip0_12906_5401">
<rect width="16" height="16" fill="white"/>
</clipPath>
</defs>
</svg>
