<svg width="24" height="25" viewBox="0 0 24 25" fill="none" xmlns="http://www.w3.org/2000/svg">
<path fill-rule="evenodd" clip-rule="evenodd" d="M9.96644 2.75L14.0336 2.75C15.4053 2.75 16.4807 2.74999 17.3451 2.82061C18.2252 2.89252 18.9523 3.04138 19.6104 3.37671C20.6924 3.92798 21.572 4.80762 22.1233 5.88955C22.4586 6.54768 22.6075 7.27479 22.6794 8.15494C22.75 9.01928 22.75 10.0947 22.75 11.4664V13.5336C22.75 14.9053 22.75 15.9807 22.6794 16.8451C22.6075 17.7252 22.4586 18.4523 22.1233 19.1104C21.572 20.1924 20.6924 21.072 19.6104 21.6233C18.9523 21.9586 18.2252 22.1075 17.3451 22.1794C16.4807 22.25 15.4053 22.25 14.0336 22.25H9.96642C8.59471 22.25 7.51928 22.25 6.65494 22.1794C5.77479 22.1075 5.04768 21.9586 4.38955 21.6233C3.30762 21.072 2.42798 20.1924 1.87671 19.1104C1.54138 18.4523 1.39252 17.7252 1.32061 16.8451C1.24999 15.9807 1.25 14.9053 1.25 13.5336L1.25 11.4664C1.25 10.0947 1.24999 9.01928 1.32061 8.15494C1.39252 7.27479 1.54138 6.54768 1.87671 5.88955C2.42798 4.80762 3.30762 3.92798 4.38955 3.37671C5.04768 3.04138 5.77479 2.89252 6.65494 2.82061C7.51928 2.74999 8.59472 2.75 9.96644 2.75ZM6.77708 4.31563C5.9897 4.37996 5.48197 4.50359 5.07054 4.71322C4.27085 5.12068 3.62068 5.77085 3.21322 6.57054C3.00359 6.98197 2.87996 7.4897 2.81563 8.27708C2.75058 9.07322 2.75 10.0875 2.75 11.5V13.5C2.75 14.9125 2.75058 15.9268 2.81563 16.7229C2.87996 17.5103 3.00359 18.018 3.21322 18.4295C3.62068 19.2291 4.27085 19.8793 5.07054 20.2868C5.48197 20.4964 5.9897 20.62 6.77708 20.6844C7.57322 20.7494 8.58749 20.75 10 20.75H14C15.4125 20.75 16.4268 20.7494 17.2229 20.6844C18.0103 20.62 18.518 20.4964 18.9295 20.2868C19.7291 19.8793 20.3793 19.2291 20.7868 18.4295C20.9964 18.018 21.12 17.5103 21.1844 16.7229C21.2494 15.9268 21.25 14.9125 21.25 13.5V11.5C21.25 10.0875 21.2494 9.07322 21.1844 8.27708C21.12 7.4897 20.9964 6.98197 20.7868 6.57054C20.3793 5.77085 19.7291 5.12068 18.9295 4.71322C18.518 4.50359 18.0103 4.37996 17.2229 4.31563C16.4268 4.25058 15.4125 4.25 14 4.25L10 4.25C8.58749 4.25 7.57322 4.25058 6.77708 4.31563ZM5.37596 8.08397C5.60573 7.73933 6.07138 7.6462 6.41602 7.87596L7.97842 8.91756C9.63123 10.0194 10.3041 10.4547 11.0096 10.6237C11.6606 10.7798 12.3394 10.7798 12.9904 10.6237C13.6959 10.4547 14.3688 10.0194 16.0216 8.91756L17.584 7.87596C17.9286 7.6462 18.3943 7.73933 18.624 8.08397C18.8538 8.42862 18.7607 8.89427 18.416 9.12404L16.8536 10.1656C16.8086 10.1957 16.764 10.2254 16.72 10.2547C15.2448 11.2386 14.3382 11.8432 13.34 12.0824C12.4591 12.2935 11.5409 12.2935 10.66 12.0824C9.66183 11.8432 8.75518 11.2386 7.27999 10.2547C7.23596 10.2254 7.19143 10.1957 7.14637 10.1656L5.58397 9.12404C5.23933 8.89427 5.1462 8.42862 5.37596 8.08397Z" fill="white"/>
</svg>
