<svg width="24" height="25" viewBox="0 0 24 25" fill="none" xmlns="http://www.w3.org/2000/svg">
<path fill-rule="evenodd" clip-rule="evenodd" d="M14.7927 3.67903C15.0656 4.11652 15.3097 4.61258 15.5248 5.15039C15.8726 6.01983 16.1568 7.02904 16.3636 8.13641C17.471 8.34323 18.4802 8.62744 19.3496 8.97521C19.8874 9.19034 20.3835 9.43444 20.821 9.70735C19.9155 6.84478 17.6552 4.58446 14.7927 3.67903ZM22.75 12.5C22.75 6.56294 17.9371 1.75 12 1.75C6.06294 1.75 1.25 6.56294 1.25 12.5C1.25 18.4371 6.06294 23.25 12 23.25C17.9371 23.25 22.75 18.4371 22.75 12.5ZM21.25 12.5C21.25 12.2204 21.1114 11.8781 20.6988 11.4879C20.2846 11.0962 19.6451 10.7089 18.7925 10.3679C18.1527 10.112 17.4137 9.8904 16.5975 9.71354C16.6972 10.6038 16.75 11.5384 16.75 12.5C16.75 13.4616 16.6972 14.3962 16.5975 15.2865C17.4137 15.1096 18.1527 14.888 18.7925 14.6321C19.6451 14.2911 20.2846 13.9038 20.6988 13.5121C21.1114 13.1219 21.25 12.7796 21.25 12.5ZM16.3636 16.8636C17.471 16.6568 18.4802 16.3726 19.3496 16.0248C19.8874 15.8097 20.3835 15.5656 20.821 15.2927C19.9155 18.1552 17.6552 20.4155 14.7927 21.321C15.0656 20.8835 15.3097 20.3874 15.5248 19.8496C15.8726 18.9802 16.1568 17.971 16.3636 16.8636ZM15.0537 15.5537C15.1805 14.5991 15.25 13.5726 15.25 12.5C15.25 11.4274 15.1805 10.4009 15.0537 9.44628C14.0991 9.31954 13.0726 9.25 12 9.25C10.9274 9.25 9.90086 9.31954 8.94628 9.44628C8.81954 10.4009 8.75 11.4274 8.75 12.5C8.75 13.5726 8.81954 14.5991 8.94628 15.5537C9.90086 15.6805 10.9274 15.75 12 15.75C13.0726 15.75 14.0991 15.6805 15.0537 15.5537ZM9.21354 17.0975C10.1038 17.1972 11.0384 17.25 12 17.25C12.9616 17.25 13.8962 17.1972 14.7865 17.0975C14.6096 17.9137 14.388 18.6527 14.1321 19.2925C13.7911 20.145 13.4038 20.7846 13.0121 21.1988C12.6219 21.6114 12.2796 21.75 12 21.75C11.7204 21.75 11.3781 21.6114 10.9879 21.1988C10.5962 20.7846 10.2089 20.145 9.86793 19.2925C9.61199 18.6527 9.3904 17.9137 9.21354 17.0975ZM7.4025 15.2865C7.30277 14.3962 7.25 13.4616 7.25 12.5C7.25 11.5384 7.30277 10.6038 7.4025 9.71354C6.58631 9.8904 5.84734 10.112 5.20748 10.3679C4.35495 10.7089 3.71537 11.0962 3.30118 11.4879C2.88858 11.8781 2.75 12.2204 2.75 12.5C2.75 12.7796 2.88858 13.1219 3.30118 13.5121C3.71537 13.9038 4.35495 14.2911 5.20748 14.6321C5.84734 14.888 6.58631 15.1096 7.4025 15.2865ZM3.17903 15.2927C3.61652 15.5656 4.11258 15.8097 4.65039 16.0248C5.51984 16.3726 6.52904 16.6568 7.63641 16.8636C7.84323 17.971 8.12744 18.9802 8.47522 19.8496C8.69034 20.3874 8.93445 20.8835 9.20735 21.321C6.34479 20.4155 4.08446 18.1552 3.17903 15.2927ZM3.17903 9.70735C4.08446 6.84478 6.34478 4.58446 9.20735 3.67903C8.93445 4.11652 8.69034 4.61258 8.47522 5.15039C8.12744 6.01983 7.84323 7.02904 7.63641 8.13641C6.52904 8.34323 5.51984 8.62744 4.65039 8.97521C4.11258 9.19034 3.61652 9.43444 3.17903 9.70735ZM9.21354 7.9025C9.3904 7.08631 9.61199 6.34734 9.86793 5.70747C10.2089 4.85495 10.5962 4.21536 10.9879 3.80118C11.3781 3.38858 11.7204 3.25 12 3.25C12.2796 3.25 12.6219 3.38858 13.0121 3.80118C13.4038 4.21536 13.7911 4.85495 14.1321 5.70747C14.388 6.34734 14.6096 7.08631 14.7865 7.9025C13.8962 7.80277 12.9616 7.75 12 7.75C11.0384 7.75 10.1038 7.80277 9.21354 7.9025Z" fill="#141414"/>
</svg>
