<svg width="25" height="25" viewBox="0 0 25 25" fill="none" xmlns="http://www.w3.org/2000/svg">
<path d="M17.84 5.96C17.6027 5.96 17.3707 6.03038 17.1733 6.16224C16.976 6.29409 16.8222 6.48151 16.7313 6.70078C16.6405 6.92005 16.6168 7.16133 16.6631 7.39411C16.7094 7.62689 16.8236 7.84071 16.9915 8.00853C17.1593 8.17635 17.3731 8.29064 17.6059 8.33694C17.8387 8.38324 18.0799 8.35948 18.2992 8.26866C18.5185 8.17783 18.7059 8.02402 18.8378 7.82668C18.9696 7.62935 19.04 7.39734 19.04 7.16C19.04 6.84174 18.9136 6.53652 18.6885 6.31147C18.4635 6.08643 18.1583 5.96 17.84 5.96ZM22.44 8.38C22.4206 7.5503 22.2652 6.7294 21.98 5.95C21.7257 5.28313 21.33 4.67928 20.82 4.18C20.3248 3.66743 19.7196 3.27418 19.05 3.03C18.2727 2.73616 17.4508 2.57721 16.62 2.56C15.56 2.5 15.22 2.5 12.5 2.5C9.78 2.5 9.44 2.5 8.38 2.56C7.54915 2.57721 6.72734 2.73616 5.95 3.03C5.28168 3.27665 4.67693 3.66956 4.18 4.18C3.66743 4.67518 3.27418 5.28044 3.03 5.95C2.73616 6.72734 2.57721 7.54915 2.56 8.38C2.5 9.44 2.5 9.78 2.5 12.5C2.5 15.22 2.5 15.56 2.56 16.62C2.57721 17.4508 2.73616 18.2727 3.03 19.05C3.27418 19.7196 3.66743 20.3248 4.18 20.82C4.67693 21.3304 5.28168 21.7234 5.95 21.97C6.72734 22.2638 7.54915 22.4228 8.38 22.44C9.44 22.5 9.78 22.5 12.5 22.5C15.22 22.5 15.56 22.5 16.62 22.44C17.4508 22.4228 18.2727 22.2638 19.05 21.97C19.7196 21.7258 20.3248 21.3326 20.82 20.82C21.3322 20.3226 21.7283 19.7182 21.98 19.05C22.2652 18.2706 22.4206 17.4497 22.44 16.62C22.44 15.56 22.5 15.22 22.5 12.5C22.5 9.78 22.5 9.44 22.44 8.38ZM20.64 16.5C20.6327 17.1348 20.5178 17.7637 20.3 18.36C20.1403 18.7952 19.8839 19.1884 19.55 19.51C19.2256 19.8405 18.8332 20.0964 18.4 20.26C17.8037 20.4778 17.1748 20.5927 16.54 20.6C15.54 20.65 15.17 20.66 12.54 20.66C9.91 20.66 9.54 20.66 8.54 20.6C7.88089 20.6123 7.22459 20.5109 6.6 20.3C6.18578 20.1281 5.81136 19.8728 5.5 19.55C5.16809 19.2287 4.91484 18.8352 4.76 18.4C4.51586 17.7952 4.38044 17.1519 4.36 16.5C4.36 15.5 4.3 15.13 4.3 12.5C4.3 9.87 4.3 9.5 4.36 8.5C4.36448 7.85106 4.48295 7.20795 4.71 6.6C4.88605 6.17791 5.15627 5.80166 5.5 5.5C5.80381 5.15617 6.17929 4.8831 6.6 4.7C7.20955 4.48004 7.852 4.36508 8.5 4.36C9.5 4.36 9.87 4.3 12.5 4.3C15.13 4.3 15.5 4.3 16.5 4.36C17.1348 4.36728 17.7637 4.48225 18.36 4.7C18.8144 4.86865 19.2223 5.14285 19.55 5.5C19.8777 5.80718 20.1338 6.18273 20.3 6.6C20.5223 7.20893 20.6373 7.85178 20.64 8.5C20.69 9.5 20.7 9.87 20.7 12.5C20.7 15.13 20.69 15.5 20.64 16.5ZM12.5 7.37C11.4858 7.37198 10.495 7.67453 9.65265 8.23942C8.81035 8.80431 8.15438 9.6062 7.76763 10.5438C7.38089 11.4813 7.28072 12.5125 7.47979 13.5069C7.67886 14.5014 8.16824 15.4145 8.88608 16.131C9.60392 16.8474 10.518 17.335 11.5129 17.5321C12.5077 17.7293 13.5387 17.6271 14.4755 17.2385C15.4123 16.85 16.2129 16.1924 16.7761 15.349C17.3394 14.5056 17.64 13.5142 17.64 12.5C17.6413 11.8251 17.5092 11.1566 17.2512 10.533C16.9933 9.90931 16.6146 9.34281 16.1369 8.86605C15.6592 8.38929 15.0919 8.01168 14.4678 7.75493C13.8436 7.49818 13.1749 7.36736 12.5 7.37ZM12.5 15.83C11.8414 15.83 11.1976 15.6347 10.65 15.2688C10.1023 14.9029 9.67552 14.3828 9.42348 13.7743C9.17144 13.1659 9.1055 12.4963 9.23398 11.8503C9.36247 11.2044 9.67963 10.611 10.1453 10.1453C10.611 9.67963 11.2044 9.36247 11.8503 9.23398C12.4963 9.1055 13.1659 9.17144 13.7743 9.42348C14.3828 9.67552 14.9029 10.1023 15.2688 10.65C15.6347 11.1976 15.83 11.8414 15.83 12.5C15.83 12.9373 15.7439 13.3703 15.5765 13.7743C15.4092 14.1784 15.1639 14.5454 14.8547 14.8547C14.5454 15.1639 14.1784 15.4092 13.7743 15.5765C13.3703 15.7439 12.9373 15.83 12.5 15.83Z" fill="white"/>
</svg>
