<svg width="24" height="25" viewBox="0 0 24 25" fill="none" xmlns="http://www.w3.org/2000/svg">
<path fill-rule="evenodd" clip-rule="evenodd" d="M6.37971 3.33063C6.19768 3.26194 5.96102 3.25015 5.08852 3.25015C4.57881 3.25015 4.24376 3.25079 3.98252 3.27341C3.73485 3.29486 3.60708 3.33273 3.51091 3.38045C3.25373 3.50809 2.98298 3.81406 2.8876 4.08486C2.80285 4.32548 2.81457 4.55991 2.92862 5.49006C3.23168 7.96159 3.91348 10.2051 4.92295 12.1807L6.32144 10.5186C7.1211 9.56824 7.4193 9.2029 7.5965 8.80195C7.76244 8.4265 7.85575 8.02301 7.87149 7.61282C7.8883 7.17478 7.78077 6.71562 7.47953 5.51066L7.35724 5.02151C7.14563 4.17506 7.07678 3.94833 6.966 3.78839C6.82155 3.57984 6.61706 3.42019 6.37971 3.33063ZM5.71436 13.5699L7.4692 11.4844C7.49432 11.4545 7.51914 11.425 7.54365 11.3959C8.2434 10.5646 8.69406 10.0292 8.96848 9.40832C9.21101 8.85957 9.34738 8.26985 9.37039 7.67035C9.39642 6.99198 9.22656 6.31311 8.9628 5.25903C8.95356 5.22211 8.94421 5.18472 8.93474 5.14686L8.81245 4.6577C8.80226 4.61694 8.79224 4.5767 8.78235 4.53698C8.61635 3.87045 8.48657 3.34933 8.19909 2.93429C7.8813 2.47548 7.43143 2.12423 6.90925 1.92721C6.43687 1.74897 5.89983 1.74945 5.21294 1.75007C5.17201 1.75011 5.13054 1.75015 5.08852 1.75015L5.05801 1.75014C4.58702 1.75013 4.1867 1.75012 3.85313 1.779C3.49879 1.80968 3.16802 1.87606 2.84409 2.03682C2.23704 2.33809 1.69795 2.94733 1.4728 3.58653C1.25741 4.19802 1.33197 4.80081 1.42481 5.5513C1.42976 5.59131 1.43476 5.63174 1.43977 5.67262C1.81498 8.73256 2.73938 11.4966 4.14702 13.8814C5.66356 16.4507 7.73479 18.569 10.2624 20.1374C12.7265 21.6664 15.6136 22.6662 18.8273 23.0603C18.8682 23.0653 18.9086 23.0703 18.9486 23.0753C19.6992 23.1681 20.3021 23.2427 20.9136 23.0273C21.5528 22.8022 22.162 22.2631 22.4633 21.6561C22.6248 21.3306 22.6907 20.9961 22.7212 20.6384C22.75 20.3003 22.75 19.8929 22.75 19.4117V19.3813C22.75 19.3408 22.75 19.3009 22.7501 19.2614C22.7507 18.5901 22.7511 18.0632 22.5729 17.5909C22.3759 17.0687 22.0246 16.6188 21.5658 16.301C21.1508 16.0136 20.6297 15.8838 19.9631 15.7178C19.9234 15.7079 19.8832 15.6979 19.8424 15.6877L19.1341 15.5106C19.0989 15.5018 19.0642 15.4931 19.0298 15.4845C18.0453 15.2382 17.4111 15.0795 16.7737 15.0931C16.2101 15.1051 15.6532 15.2173 15.129 15.4245C14.5361 15.6589 14.0128 16.0508 13.2006 16.6593C13.1723 16.6805 13.1436 16.702 13.1145 16.7237L10.6247 18.588C8.64357 17.2758 6.98811 15.5846 5.71436 13.5699ZM12.0174 19.4191C14.0654 20.5157 16.4117 21.2529 19.0099 21.5715C19.9402 21.6856 20.1746 21.6973 20.4153 21.6125C20.6861 21.5172 20.992 21.2464 21.1197 20.9892C21.1666 20.8946 21.205 20.7654 21.2266 20.5111C21.2494 20.2442 21.25 19.901 21.25 19.3813C21.25 18.5313 21.2384 18.3029 21.1695 18.1204C21.0799 17.8831 20.9203 17.6786 20.7117 17.5341C20.5518 17.4233 20.3251 17.3545 19.4786 17.1429L18.7703 16.9658C17.6457 16.6847 17.2174 16.584 16.8057 16.5927C16.4201 16.601 16.039 16.6778 15.6804 16.8195C15.2974 16.9709 14.9415 17.2296 14.0136 17.9244L12.0174 19.4191Z" fill="white"/>
</svg>
