<svg width="28" height="29" viewBox="0 0 28 29" fill="none" xmlns="http://www.w3.org/2000/svg">
<path d="M0.5 8.5C0.5 4.35786 3.85786 1 8 1H20C24.1421 1 27.5 4.35786 27.5 8.5V20.5C27.5 24.6421 24.1421 28 20 28H8C3.85786 28 0.5 24.6421 0.5 20.5V8.5Z" fill="#FFFBED"/>
<path d="M0.5 8.5C0.5 4.35786 3.85786 1 8 1H20C24.1421 1 27.5 4.35786 27.5 8.5V20.5C27.5 24.6421 24.1421 28 20 28H8C3.85786 28 0.5 24.6421 0.5 20.5V8.5Z" stroke="#FFDA71"/>
<path fill-rule="evenodd" clip-rule="evenodd" d="M10.2531 8.38774C10.1318 8.34195 9.97401 8.33408 9.39235 8.33408C9.05254 8.33408 8.82917 8.33451 8.65501 8.34959C8.4899 8.36389 8.40472 8.38914 8.34061 8.42095C8.16916 8.50604 7.98866 8.71003 7.92507 8.89056C7.86856 9.05097 7.87638 9.20726 7.95241 9.82736C8.15445 11.475 8.60899 12.9707 9.28197 14.2878L10.2143 13.1797C10.7474 12.5461 10.9462 12.3026 11.0643 12.0353C11.175 11.785 11.2372 11.516 11.2477 11.2425C11.2589 10.9505 11.1872 10.6444 10.9864 9.84109L10.9048 9.51499C10.7638 8.95069 10.7179 8.79954 10.644 8.69291C10.5477 8.55388 10.4114 8.44744 10.2531 8.38774ZM9.80957 15.2139L10.9795 13.8236C10.9962 13.8036 11.0128 13.784 11.0291 13.7646C11.4956 13.2104 11.796 12.8535 11.979 12.4395C12.1407 12.0737 12.2316 11.6806 12.2469 11.2809C12.2643 10.8286 12.151 10.3761 11.9752 9.67334C11.969 9.64872 11.9628 9.6238 11.9565 9.59856L11.875 9.27245C11.8682 9.24528 11.8615 9.21845 11.8549 9.19197C11.7442 8.74762 11.6577 8.4002 11.4661 8.12351C11.2542 7.81764 10.9543 7.58347 10.6062 7.45212C10.2912 7.3333 9.93322 7.33362 9.47529 7.33403C9.448 7.33406 9.42036 7.33408 9.39235 7.33408L9.37201 7.33408C9.05802 7.33407 8.79114 7.33406 8.56875 7.35332C8.33253 7.37377 8.11202 7.41802 7.89606 7.5252C7.49136 7.72604 7.13196 8.1322 6.98187 8.55833C6.83827 8.966 6.88798 9.36786 6.94987 9.86819C6.95317 9.89486 6.95651 9.92181 6.95985 9.94906C7.20999 11.989 7.82626 13.8317 8.76468 15.4216C9.77571 17.1344 11.1565 18.5467 12.8416 19.5923C14.4843 20.6116 16.4091 21.2781 18.5515 21.5409C18.5788 21.5442 18.6057 21.5475 18.6324 21.5508C19.1328 21.6128 19.5347 21.6625 19.9424 21.5189C20.3685 21.3688 20.7747 21.0094 20.9755 20.6047C21.0832 20.3877 21.1272 20.1647 21.1475 19.9262C21.1667 19.7008 21.1667 19.4292 21.1667 19.1084V19.0882C21.1667 19.0612 21.1667 19.0346 21.1667 19.0083C21.1671 18.5607 21.1674 18.2094 21.0486 17.8946C20.9173 17.5465 20.6831 17.2465 20.3772 17.0347C20.1005 16.843 19.7531 16.7565 19.3088 16.6458C19.2823 16.6392 19.2555 16.6326 19.2283 16.6258L18.7561 16.5077C18.7326 16.5018 18.7094 16.4961 18.6865 16.4903C18.0302 16.3261 17.6074 16.2203 17.1825 16.2294C16.8068 16.2374 16.4355 16.3122 16.086 16.4503C15.6907 16.6066 15.3419 16.8679 14.8004 17.2735C14.7815 17.2876 14.7624 17.302 14.743 17.3165L13.0831 18.5593C11.7624 17.6845 10.6587 16.557 9.80957 15.2139ZM14.0116 19.1134C15.3769 19.8444 16.9411 20.3359 18.6732 20.5483C19.2934 20.6244 19.4498 20.6322 19.6102 20.5757C19.7907 20.5121 19.9947 20.3316 20.0798 20.1601C20.1111 20.0971 20.1366 20.011 20.1511 19.8414C20.1662 19.6634 20.1667 19.4346 20.1667 19.0882C20.1667 18.5215 20.1589 18.3693 20.113 18.2476C20.0533 18.0894 19.9469 17.953 19.8078 17.8567C19.7012 17.7829 19.55 17.737 18.9857 17.5959L18.5136 17.4779C17.7638 17.2904 17.4783 17.2233 17.2038 17.2291C16.9467 17.2346 16.6927 17.2858 16.4536 17.3803C16.1983 17.4812 15.961 17.6538 15.3424 18.1169L14.0116 19.1134Z" fill="#EBAB00"/>
</svg>
