<svg width="16" height="17" viewBox="0 0 16 17" fill="none" xmlns="http://www.w3.org/2000/svg">
<path fill-rule="evenodd" clip-rule="evenodd" d="M8 2.33301C4.90437 2.33301 2.5 4.47941 2.5 7.49968C2.5 9.95364 3.5896 11.7455 4.84375 12.9328C5.47271 13.5283 6.13961 13.9677 6.72205 14.2564C7.32103 14.5533 7.78049 14.6662 8 14.6662C8.21951 14.6662 8.67897 14.5533 9.27795 14.2564C9.86039 13.9677 10.5273 13.5283 11.1562 12.9328C12.4104 11.7455 13.5 9.95364 13.5 7.49968C13.5 4.47941 11.0956 2.33301 8 2.33301ZM1.5 7.49968C1.5 3.85327 4.42896 1.33301 8 1.33301C11.571 1.33301 14.5 3.85327 14.5 7.49968C14.5 10.2803 13.2563 12.3217 11.8438 13.659C11.1394 14.3259 10.3896 14.8215 9.72205 15.1524C9.07103 15.4751 8.44715 15.6662 8 15.6662C7.55285 15.6662 6.92897 15.4751 6.27795 15.1524C5.61039 14.8215 4.86063 14.3259 4.15625 13.659C2.74373 12.3217 1.5 10.2803 1.5 7.49968ZM8 6.33301C7.17157 6.33301 6.5 7.00458 6.5 7.83301C6.5 8.66144 7.17157 9.33301 8 9.33301C8.82843 9.33301 9.5 8.66144 9.5 7.83301C9.5 7.00458 8.82843 6.33301 8 6.33301ZM5.5 7.83301C5.5 6.4523 6.61929 5.33301 8 5.33301C9.38071 5.33301 10.5 6.4523 10.5 7.83301C10.5 9.21372 9.38071 10.333 8 10.333C6.61929 10.333 5.5 9.21372 5.5 7.83301Z" fill="#737373"/>
</svg>
