<svg width="37" height="37" viewBox="0 0 37 37" fill="none" xmlns="http://www.w3.org/2000/svg">
<path d="M15.3979 30.874C15.3979 31.1501 15.6218 31.374 15.8979 31.374H21.6479C21.9241 31.374 22.1479 31.1501 22.1479 30.874V21.852H31.5379C31.8141 21.852 32.0379 21.6281 32.0379 21.352V15.832C32.0379 15.5558 31.8141 15.332 31.5379 15.332H22.1479V6.12598C22.1479 5.84983 21.9241 5.62598 21.6479 5.62598H15.8979C15.6218 5.62598 15.3979 5.84983 15.3979 6.12598V15.332H5.96191C5.68577 15.332 5.46191 15.5558 5.46191 15.832V21.352C5.46191 21.6281 5.68577 21.852 5.96191 21.852H15.3979V30.874Z" fill="url(#paint0_linear_12786_2779)" stroke="#EBAB00" stroke-linejoin="round"/>
<defs>
<linearGradient id="paint0_linear_12786_2779" x1="30.9504" y1="-16.2792" x2="-10.9783" y2="17.9227" gradientUnits="userSpaceOnUse">
<stop stop-color="#FAB600"/>
<stop offset="1" stop-color="#FFDA71"/>
</linearGradient>
</defs>
</svg>
