<svg width="24" height="25" viewBox="0 0 24 25" fill="none" xmlns="http://www.w3.org/2000/svg">
<path d="M23 10.2105C23.0495 8.77913 22.7365 7.35849 22.09 6.08047C21.6514 5.55607 21.0427 5.20218 20.37 5.08047C17.5875 4.828 14.7936 4.72452 12 4.77047C9.21667 4.72243 6.43274 4.82257 3.66003 5.07047C3.11185 5.17019 2.60454 5.42731 2.20003 5.81047C1.30003 6.64047 1.20003 8.06047 1.10003 9.26047C0.954939 11.418 0.954939 13.5829 1.10003 15.7405C1.12896 16.4159 1.22952 17.0863 1.40003 17.7405C1.5206 18.2455 1.76455 18.7128 2.11003 19.1005C2.51729 19.5039 3.03641 19.7757 3.60003 19.8805C5.75594 20.1466 7.92824 20.2569 10.1 20.2105C13.6 20.2605 16.67 20.2105 20.3 19.9305C20.8775 19.8321 21.4112 19.56 21.83 19.1505C22.11 18.8704 22.3191 18.5276 22.44 18.1505C22.7977 17.0531 22.9733 15.9046 22.96 14.7505C23 14.1905 23 10.8105 23 10.2105ZM9.74003 15.3505V9.16047L15.66 12.2705C14 13.1905 11.81 14.2305 9.74003 15.3505Z" fill="white"/>
</svg>
